<svg width="653" height="661" viewBox="0 0 653 661" fill="none" xmlns="http://www.w3.org/2000/svg">
<path d="M240.804 1.42371C224.404 7.55704 216.138 24.4903 221.204 41.557C223.338 48.8903 234.404 59.9571 241.738 62.0904C251.604 65.0237 251.604 64.8903 251.604 53.2903C251.604 43.0237 251.604 43.0237 247.204 41.0237C239.338 37.4237 238.938 26.757 246.538 22.4904C253.471 18.4904 256.271 21.0237 273.871 47.0237C282.804 60.2237 290.138 71.2904 290.138 71.6904C290.271 72.0904 288.004 73.6903 285.204 75.2903C261.071 89.0237 240.538 118.357 233.871 148.624L230.804 162.224L216.804 175.957C202.538 190.09 190.671 204.624 181.604 219.424C176.671 227.424 176.404 227.69 174.271 225.424C173.071 224.09 161.071 210.09 147.604 194.357C134.138 178.624 122.271 164.624 120.938 163.29C119.604 161.824 104.004 156.624 80.1377 149.824L41.6044 138.757L38.5377 148.624C36.8044 154.09 35.6044 158.757 35.871 159.024C36.1377 159.29 52.1377 163.957 71.6044 169.557C90.9377 175.157 107.471 180.357 108.404 181.29C116.271 189.957 164.938 247.69 164.938 248.357C164.938 248.89 162.271 255.957 159.071 264.09C151.471 283.29 144.538 306.224 141.471 322.624C140.138 329.824 138.671 335.69 138.004 335.69C137.471 335.69 124.938 329.69 110.271 322.357C95.471 315.024 81.871 309.024 80.1377 309.024C78.271 309.024 75.3377 310.49 73.6044 312.357C70.9377 315.024 70.271 316.89 70.271 322.757C70.271 342.224 62.5377 368.09 51.471 386.224C43.2044 399.557 34.0044 409.69 14.9377 426.09C6.9377 433.024 0.137703 439.157 0.00437 439.557C-0.128963 439.957 2.80437 443.824 6.67104 448.09L13.6044 455.69L30.9377 440.757C40.4044 432.49 51.871 421.29 56.4044 415.824C72.271 397.024 84.0044 372.49 88.4044 349.69C89.7377 343.024 90.8044 337.557 90.9377 337.29C91.2044 337.024 101.204 341.824 113.338 347.957L135.471 358.89L134.671 382.357C134.004 403.157 134.804 420.09 137.738 445.69L138.538 452.357L107.338 461.024C75.071 470.09 70.271 472.224 70.271 478.49C70.271 480.224 74.4044 494.224 79.471 509.557C90.0044 541.557 92.4044 554.357 91.071 572.49C89.6044 594.09 82.4044 614.09 69.6044 633.024C65.471 639.024 62.4044 644.224 62.671 644.49C62.9377 644.89 66.8044 647.69 71.071 650.89L78.9377 656.757L85.3377 647.957C94.5377 635.424 104.271 614.624 108.538 599.024C111.604 587.424 112.004 583.024 112.004 565.024C112.138 541.69 111.338 537.157 101.338 506.757C97.871 496.357 95.3377 487.424 95.7377 487.024C96.5377 486.357 135.338 475.024 140.004 474.09C142.138 473.824 143.204 476.09 146.938 489.29C171.604 574.49 220.938 634.09 283.738 654.09C376.671 683.824 469.204 615.157 505.604 489.29C509.338 476.09 510.404 473.824 512.538 474.09C517.204 475.024 556.004 486.357 556.804 487.024C557.204 487.424 554.671 496.357 551.204 506.757C541.338 537.024 540.404 541.69 540.404 565.024C540.538 583.024 540.938 587.424 544.004 599.024C548.138 614.49 558.004 635.29 567.204 647.957L573.604 656.757L581.471 650.89C585.738 647.69 589.604 644.89 589.871 644.624C590.138 644.224 586.538 638.357 582.004 631.557C569.204 612.49 562.804 594.09 561.338 572.224C560.138 554.357 562.538 541.29 573.071 509.557C578.138 494.224 582.271 480.224 582.271 478.49C582.271 472.224 577.604 469.957 545.204 461.024L514.004 452.357L514.804 445.69C517.738 419.29 518.538 403.157 517.871 382.357L517.071 358.89L539.204 347.957C551.338 341.824 561.338 337.024 561.604 337.29C561.738 337.557 562.671 341.69 563.471 346.624C567.071 367.424 577.871 391.957 591.471 409.824C600.404 421.69 606.404 427.69 625.604 444.224L638.938 455.69L645.871 447.957C649.738 443.824 652.671 439.957 652.538 439.557C652.404 439.157 645.738 433.024 637.604 426.09C618.538 409.69 609.338 399.557 601.071 386.224C590.004 368.09 582.271 342.224 582.271 322.757C582.271 316.89 581.604 315.024 578.938 312.357C577.204 310.49 574.138 309.024 572.271 309.024C570.404 309.024 556.938 315.024 542.271 322.357C527.604 329.69 515.071 335.69 514.404 335.69C513.738 335.69 512.804 332.89 512.271 329.29C509.871 312.224 499.071 275.824 490.938 257.557C489.071 253.424 487.604 249.424 487.604 248.757C487.604 247.69 535.738 190.49 544.138 181.424C544.938 180.624 561.471 175.29 580.938 169.69C600.271 164.09 616.404 159.29 616.671 159.024C617.738 157.957 611.338 139.69 609.871 139.69C605.071 139.69 533.471 161.29 531.471 163.29C530.271 164.624 518.404 178.624 504.938 194.357C491.471 210.09 479.604 224.09 478.404 225.424C476.271 227.557 475.738 227.024 468.671 216.09C458.671 200.49 442.138 180.89 430.671 171.024L421.471 163.024L419.071 151.024C416.671 138.357 410.804 123.157 403.338 110.624C397.871 101.29 378.271 81.6904 369.204 76.3571C365.471 74.0904 362.404 72.0904 362.404 71.6904C362.404 71.2904 369.738 60.2237 378.671 47.0237C396.271 21.0237 399.071 18.4904 406.004 22.4904C413.604 26.757 413.204 37.4237 405.338 41.0237C400.938 43.0237 400.938 43.0237 400.938 53.2903C400.938 64.8903 400.938 65.0237 410.804 62.0904C418.671 59.6904 429.204 48.8904 431.471 40.6237C434.804 29.0237 431.871 17.4237 423.471 9.15704C416.671 2.35704 412.004 0.490389 401.471 0.357056C393.338 0.357056 391.204 0.890389 385.471 4.35706C379.871 7.82372 376.404 12.2237 360.138 36.2237L341.471 64.2237H326.271H311.071L292.404 36.2237C276.671 12.8904 272.671 7.82372 267.338 4.62372C260.004 0.0903845 248.271 -1.37629 240.804 1.42371ZM346.671 88.757C362.538 94.357 378.138 108.757 387.604 126.624C391.471 133.69 396.004 145.024 395.071 145.024C394.804 145.024 390.004 142.89 384.271 140.224C378.538 137.557 368.138 133.957 361.071 131.957C349.738 129.024 345.738 128.624 326.271 128.624C306.538 128.624 302.938 128.89 291.071 132.224C283.871 134.09 273.471 137.824 267.871 140.357C262.404 142.89 257.738 145.024 257.471 145.024C256.671 145.024 260.671 134.89 264.004 128.224C272.271 112.09 287.338 96.757 300.938 90.757C315.071 84.4904 332.404 83.8237 346.671 88.757ZM346.404 151.024C365.338 154.224 379.871 160.224 397.871 171.957C411.738 180.89 436.804 206.224 447.471 221.957L455.738 234.357H326.271H196.804L205.204 222.09C242.004 168.224 294.404 141.824 346.404 151.024ZM469.471 261.024C470.671 263.957 471.604 266.624 471.604 266.89C471.604 267.157 468.004 267.824 463.471 268.224C452.671 269.557 434.804 274.757 422.804 280.224C390.671 295.157 361.204 325.69 348.138 357.557C338.938 380.224 337.871 386.89 330.138 481.024C328.538 500.49 326.804 516.757 326.404 517.29C326.004 517.824 323.338 491.157 320.404 457.957C317.604 424.757 314.538 393.157 313.471 387.557C304.804 341.424 272.538 300.09 229.738 280.224C217.738 274.757 199.871 269.557 189.071 268.224C184.538 267.824 180.938 267.157 180.938 266.89C180.938 266.624 181.871 263.957 183.071 261.024L185.204 255.69L326.404 248.357L467.338 255.69L469.471 261.024ZM197.871 291.824C248.004 304.357 263.738 357.957 272.271 409.824C272.938 414.09 314.271 633.024 314.271 636.757C314.271 641.29 290.671 635.557 272.271 626.49C180.938 582.224 133.071 439.024 166.271 309.69C172.271 286.357 171.471 287.557 180.538 288.49C184.804 289.024 192.538 290.49 197.871 291.824ZM483.204 298.357C492.404 328.224 496.271 356.757 496.271 394.357C496.271 411.824 495.471 429.69 494.404 437.024C485.604 501.157 462.004 555.024 426.538 591.824C410.271 608.757 399.871 616.624 381.604 625.824C361.871 635.557 338.271 641.424 338.271 636.49C338.271 630.49 384.404 401.024 385.471 394.357C390.138 366.224 381.738 335.29 403.604 317.557C421.738 302.89 445.338 292.357 466.538 289.157C480.004 287.29 479.738 287.024 483.204 298.357Z" fill="white"/>
<path d="M133.05 639.855C201.965 639.855 283.021 593.414 289.272 525.538L290.165 511.248C306.239 513.034 308.48 513.693 323.603 513.873C429.708 515.102 517.669 429.321 518.759 323.451C519.867 216.238 433.089 129 325.914 129C219.395 129 133.05 215.16 133.05 321.446C133.05 324.018 132.937 326.553 133.05 329.107L133.05 647V639.855ZM323.754 239.674C339.584 239.82 355.018 244.68 368.111 253.644C381.203 262.607 391.369 275.271 397.327 290.042C403.286 304.813 404.77 321.029 401.593 336.648C398.416 352.267 390.72 366.589 379.475 377.811C368.23 389.034 353.938 396.653 338.401 399.71C322.863 402.767 306.774 401.125 292.162 394.991C277.549 388.857 265.066 378.505 256.285 365.239C247.504 351.973 242.818 336.386 242.818 320.443C242.917 298.925 251.5 278.327 266.678 263.181C281.855 248.034 302.386 239.579 323.754 239.674Z" fill="white"/>
<path d="M143.063 627.352C208.59 627.352 281.618 574.712 281.618 509.783V496.173C295.576 499.634 309.888 501.468 324.267 501.638C425.157 502.799 508.794 421.795 509.829 321.821C510.883 220.579 428.371 138.199 326.464 138.199C225.182 138.199 143.081 219.561 143.081 319.927C143.081 322.357 142.974 324.75 143.081 327.162L143.081 627.352H143.063ZM324.41 242.71C339.463 242.847 354.138 247.437 366.587 255.901C379.036 264.365 388.702 276.324 394.367 290.273C400.033 304.221 401.444 319.534 398.423 334.283C395.403 349.032 388.085 362.557 377.392 373.154C366.7 383.751 353.111 390.946 338.337 393.833C323.563 396.72 308.266 395.17 294.371 389.377C280.477 383.584 268.608 373.809 260.258 361.281C251.909 348.754 247.453 334.036 247.453 318.981C247.547 298.661 255.708 279.21 270.14 264.907C284.572 250.604 304.093 242.62 324.41 242.71Z" fill="url(#paint0_linear_1633_46)"/>
<path d="M252.302 318.338C252.302 278.68 284.447 246.531 324.098 246.531C363.75 246.531 395.895 278.68 395.895 318.338C395.895 357.997 363.75 390.145 324.098 390.145C284.447 390.145 252.302 357.997 252.302 318.338Z" stroke="white" stroke-width="10"/>
<path d="M518.719 639.855C449.804 639.855 368.748 593.414 362.497 525.538L361.604 511.248C345.53 513.034 343.289 513.693 328.166 513.873C222.061 515.102 134.1 429.321 133.01 323.451C131.902 216.238 218.68 129 325.855 129C432.374 129 518.719 215.16 518.719 321.446C518.719 324.018 518.832 326.553 518.719 329.107V647V639.855ZM328.015 239.674C312.185 239.82 296.751 244.68 283.658 253.644C270.566 262.607 260.4 275.271 254.442 290.042C248.483 304.813 246.999 321.029 250.176 336.648C253.353 352.267 261.049 366.589 272.294 377.811C283.539 389.034 297.831 396.653 313.369 399.71C328.906 402.767 344.995 401.125 359.607 394.991C374.22 388.857 386.703 378.505 395.484 365.239C404.265 351.973 408.951 336.386 408.951 320.443C408.852 298.925 400.269 278.327 385.092 263.181C369.914 248.034 349.383 239.579 328.015 239.674Z" fill="white"/>
<path d="M508.706 627.352C443.179 627.352 370.151 574.712 370.151 509.783V496.173C356.193 499.634 341.881 501.468 327.502 501.638C226.612 502.799 142.976 421.795 141.94 321.821C140.886 220.579 223.398 138.199 325.305 138.199C426.587 138.199 508.688 219.561 508.688 319.927C508.688 322.357 508.795 324.75 508.688 327.162L508.688 627.352H508.706ZM327.359 242.71C312.306 242.847 297.631 247.437 285.182 255.901C272.733 264.365 263.067 276.324 257.402 290.273C251.736 304.221 250.325 319.534 253.346 334.283C256.367 349.032 263.684 362.557 274.377 373.154C285.069 383.751 298.658 390.946 313.432 393.833C328.206 396.72 343.503 395.17 357.398 389.377C371.292 383.584 383.161 373.809 391.511 361.281C399.86 348.754 404.316 334.036 404.316 318.981C404.222 298.661 396.061 279.21 381.629 264.907C367.198 250.604 347.676 242.62 327.359 242.71Z" fill="url(#paint1_linear_1633_46)"/>
<path d="M399.467 318.338C399.467 278.68 367.322 246.531 327.671 246.531C288.019 246.531 255.874 278.68 255.874 318.338C255.874 357.997 288.019 390.145 327.671 390.145C367.322 390.145 399.467 357.997 399.467 318.338Z" stroke="white" stroke-width="10"/>
<defs>
<linearGradient id="paint0_linear_1633_46" x1="139.205" y1="248.997" x2="397.223" y2="506.962" gradientUnits="userSpaceOnUse">
<stop stop-color="#00C8FF"/>
<stop offset="0.3" stop-color="#078BE3"/>
<stop offset="0.3001" stop-color="#078AE2"/>
<stop offset="1" stop-color="#1700A2"/>
</linearGradient>
<linearGradient id="paint1_linear_1633_46" x1="512.564" y1="248.997" x2="254.546" y2="506.962" gradientUnits="userSpaceOnUse">
<stop stop-color="#00C8FF"/>
<stop offset="0.3" stop-color="#078BE3"/>
<stop offset="0.3001" stop-color="#078AE2"/>
<stop offset="1" stop-color="#1700A2"/>
</linearGradient>
</defs>
</svg>
